<svg xmlns="http://www.w3.org/2000/svg" width="24" height="24" fill="currentColor" viewBox="0 0 24 24">
  <path fill-rule="evenodd" d="M17.445 3.708a1.25 1.25 0 011.11 0c.156.078.327.234.915.822.588.588.744.759.822.915.173.35.173.76 0 1.11-.078.156-.234.327-.822.915l-.767.767a3.251 3.251 0 01-2.94-2.94l.768-.767c.588-.588.758-.744.914-.822zM14.51 6.551L6.901 14.16c-.528.528-.726.73-.882.953-.146.21-.267.435-.36.672-.1.254-.157.53-.304 1.262l-.399 1.997 1.997-.4c.731-.146 1.008-.204 1.262-.303.237-.093.463-.214.672-.36.223-.156.425-.354.953-.882l7.608-7.608a4.763 4.763 0 01-2.939-2.94zm4.712-4.187a2.75 2.75 0 00-2.442 0c-.407.202-.763.559-1.223 1.02l-.086.086-9.63 9.63-.048.048c-.464.463-.762.761-1.003 1.107a4.75 4.75 0 00-.526.982c-.154.392-.237.807-.365 1.45l-.013.066-.62 3.1a.75.75 0 00.882.882l3.1-.62.067-.013c.642-.128 1.057-.211 1.448-.365.348-.136.677-.313.983-.526.345-.24.644-.54 1.107-1.003l.048-.048 9.63-9.63.086-.086c.461-.46.818-.816 1.02-1.223a2.75 2.75 0 000-2.442c-.202-.407-.559-.763-1.02-1.224l-.086-.085-.085-.086c-.46-.461-.817-.818-1.224-1.02z"/>
</svg>
