<svg xmlns="http://www.w3.org/2000/svg" width="24" height="24" fill="currentColor" viewBox="0 0 24 24">
  <path fill-rule="evenodd" d="M4.37 16.285c-.21-.373-.57-.646-.994-.704l-.11-.015c-.597-.08-1.06-.144-1.451-.33A2.75 2.75 0 01.38 13.593c-.132-.412-.132-.88-.131-1.482v-.221c0-.603 0-1.071.131-1.483a2.75 2.75 0 011.434-1.643c.39-.186.854-.25 1.451-.33l.11-.015c.424-.058.783-.33.993-.704.034-.06.068-.12.104-.179.219-.368.276-.817.114-1.214l-.042-.103c-.228-.557-.406-.99-.44-1.422a2.75 2.75 0 01.706-2.063c.29-.32.696-.554 1.218-.855l.096-.055.096-.055c.521-.302.927-.536 1.35-.628a2.75 2.75 0 012.139.42c.356.246.643.616 1.011 1.092l.068.088c.263.339.68.514 1.11.51a9.077 9.077 0 01.203 0c.429.004.846-.171 1.109-.51l.068-.088c.368-.476.655-.847 1.011-1.091a2.75 2.75 0 012.14-.42c.422.09.828.325 1.35.627l.095.055.096.055c.521.301.927.535 1.218.855a2.75 2.75 0 01.706 2.063c-.034.432-.212.865-.44 1.422l-.042.103c-.162.397-.105.846.114 1.214l.104.18c.21.372.57.645.993.703l.11.015c.597.08 1.06.144 1.451.33a2.75 2.75 0 011.434 1.643c.132.412.131.88.131 1.483v.22c0 .603 0 1.071-.131 1.483a2.75 2.75 0 01-1.434 1.643c-.39.186-.854.25-1.451.33l-.11.015c-.424.058-.783.331-.993.704-.034.06-.068.12-.104.179-.219.368-.276.818-.114 1.215l.042.102c.229.557.406.99.44 1.422a2.75 2.75 0 01-.706 2.063c-.29.32-.697.554-1.218.855l-.096.055-.096.055c-.521.302-.927.536-1.35.628a2.75 2.75 0 01-2.139-.42c-.356-.245-.643-.616-1.011-1.092l-.068-.088c-.263-.339-.68-.514-1.11-.51a8.573 8.573 0 01-.203 0c-.429-.005-.846.171-1.109.51l-.068.088c-.368.476-.655.846-1.011 1.091a2.75 2.75 0 01-2.14.42c-.423-.09-.828-.325-1.35-.627l-.095-.055-.096-.055c-.522-.301-.927-.535-1.218-.855a2.75 2.75 0 01-.706-2.063c.034-.432.211-.865.44-1.422l.042-.103c.162-.397.105-.846-.114-1.214a8.476 8.476 0 01-.104-.18zM12 15a3 3 0 100-6 3 3 0 000 6z"/>
</svg>
