<svg xmlns="http://www.w3.org/2000/svg" width="24" height="24" fill="currentColor" viewBox="0 0 24 24">
  <path fill-rule="evenodd" d="M15.325 4.25A3.751 3.751 0 0122.75 5a3.75 3.75 0 01-7.425.75H9a3.251 3.251 0 00-3.183 2.59 3.751 3.751 0 010 7.32A3.251 3.251 0 009 18.25h6.325a3.751 3.751 0 017.425.75 3.75 3.75 0 01-7.425.75H9a4.751 4.751 0 01-4.701-4.065 3.751 3.751 0 010-7.37A4.751 4.751 0 019 4.25h6.325zM16.75 19a2.25 2.25 0 104.5 0 2.25 2.25 0 00-4.5 0zm0-14a2.25 2.25 0 104.5 0 2.25 2.25 0 00-4.5 0zM5 9.75a2.25 2.25 0 100 4.5 2.25 2.25 0 000-4.5z"/>
</svg>
