<svg xmlns="http://www.w3.org/2000/svg" width="24" height="24" fill="currentColor" viewBox="0 0 24 24">
  <path fill-rule="evenodd" d="M10.349 3.75c1.014 0 1.399.005 1.753.09.332.08.649.21.94.389.31.19.585.459 1.302 1.176l3.6 3.6c.801.8 1.37 1.37 1.778 1.851.403.475.606.815.712 1.14a3.25 3.25 0 010 2.008c-.106.325-.31.665-.712 1.14-.409.481-.977 1.05-1.778 1.851l-.949.95c-.8.8-1.37 1.368-1.851 1.777-.475.403-.815.606-1.14.712a3.25 3.25 0 01-2.008 0c-.325-.106-.665-.31-1.14-.712-.481-.409-1.05-.977-1.851-1.778l-3.6-3.6c-.717-.717-.986-.992-1.176-1.303a3.25 3.25 0 01-.39-.94c-.084-.353-.089-.738-.089-1.752V9.4c0-1.132 0-1.937.052-2.566.05-.62.147-1.005.302-1.31a3.25 3.25 0 011.42-1.42c.305-.155.69-.251 1.31-.302.63-.051 1.434-.052 2.566-.052h.949zm2.103-1.369c-.548-.131-1.12-.131-2.01-.131H9.368c-1.092 0-1.958 0-2.655.057-.714.058-1.317.18-1.868.46a4.75 4.75 0 00-2.076 2.077c-.281.55-.403 1.154-.461 1.868-.057.697-.057 1.563-.057 2.655v1.076c0 .888 0 1.461.131 2.009.117.485.309.948.569 1.373.294.48.7.885 1.328 1.514l.066.066 3.6 3.6.024.023c.772.773 1.384 1.385 1.917 1.837.546.464 1.059.805 1.647.996a4.75 4.75 0 002.936 0c.588-.192 1.101-.532 1.647-.996.533-.452 1.145-1.065 1.918-1.837l.023-.023.949-.95.023-.023c.773-.772 1.385-1.384 1.837-1.917.464-.546.805-1.059.996-1.647a4.75 4.75 0 000-2.936c-.192-.588-.532-1.101-.996-1.647-.452-.533-1.064-1.145-1.837-1.917l-.023-.024-3.6-3.6-.066-.066c-.629-.629-1.034-1.034-1.514-1.328a4.75 4.75 0 00-1.373-.569zM8.75 10a1.25 1.25 0 112.5 0 1.25 1.25 0 01-2.5 0zM10 7.25a2.75 2.75 0 100 5.5 2.75 2.75 0 000-5.5z"/>
</svg>
